<?xml version="1.0" encoding="utf-8"?>
<!-- Generator: Adobe Illustrator 17.0.0, SVG Export Plug-In . SVG Version: 6.00 Build 0)  -->
<!DOCTYPE svg PUBLIC "-//W3C//DTD SVG 1.1//EN" "http://www.w3.org/Graphics/SVG/1.1/DTD/svg11.dtd">
<svg version="1.1" id="Layer_1" xmlns:sketch="http://www.bohemiancoding.com/sketch/ns"
	 xmlns="http://www.w3.org/2000/svg" xmlns:xlink="http://www.w3.org/1999/xlink" x="0px" y="0px" width="50px" height="34px"
	 viewBox="0 0 50 34" enable-background="new 0 0 50 34" xml:space="preserve">
<title>Imported Layers</title>
<desc>Created with Sketch.</desc>
<g id="Welcome" sketch:type="MSPage">
	<g id="Desktop-HD" transform="translate(-685.000000, -5406.000000)" sketch:type="MSArtboardGroup">
		<g id="footer" transform="translate(40.000000, 5406.000000)" sketch:type="MSLayerGroup">
			<path id="Imported-Layers" sketch:type="MSShapeGroup" fill="#4A4A4A" d="M646.138,29.685c0.319-0.091,0.734-0.617,1.569-1.222
				c0.513-0.373,2.081-1.559,4.25-2.388c2.169-0.829,3.173-0.851,3.952-0.994c1.706-0.313,3.517-0.079,4.795,0.227
				c2.102,0.506,3.463,1.675,5.733,4.366c3.179,3.769,6.127,4.163,9.024,3.104c2.783-1.018,6.657-6.02,10.868-10.925
				c0.674-0.784,7.403-8.549,7.796-8.992c0.037-0.041,0.063-0.069,0.063-0.069c0.011-0.016,0.014-0.037,0.02-0.056
				c0-0.002,0-0.004,0.001-0.006c0.004-0.013,0.012-0.024,0.014-0.039c0.001-0.005,0.008-0.018,0-0.047
				c-0.005-0.014-0.012-0.031-0.018-0.047c-0.008-0.019-0.016-0.034-0.016-0.034c-2.041-3.571-6.762-10.94-7.696-12.396
				c-0.016-0.025-0.071-0.128-0.194-0.155c0.001-0.002,0.002-0.004,0.003-0.005C686.284,0.003,686.265,0,686.245,0h0
				c-0.001,0-0.002,0.001-0.004,0.001c-0.002,0-0.004,0.001-0.006,0.001c-0.069,0.003-0.117,0.033-0.142,0.048
				c-0.001,0.001-0.004,0.002-0.006,0.004c-0.002,0.001-0.005,0.003-0.006,0.004c-0.353,0.205-0.803,0.47-1.322,0.778
				c-3.63,2.153-10.593,6.373-10.673,6.429c-0.023,0.016-0.041,0.03-0.055,0.044c-0.002,0.002-0.003,0.004-0.004,0.005
				c-0.008,0.009-0.013,0.015-0.019,0.023c-0.002,0.004-0.006,0.007-0.008,0.009c-0.014,0.028-0.015,0.057-0.005,0.1
				c0,0.002,0.005,0.026,0.015,0.07c0.254,1.218,4.586,21.278,4.736,21.972c-0.522,0.518-1.05,1.005-1.581,1.418
				c-0.727,0.564-1.423,1.022-2.098,1.247c-0.923,0.308-1.667,0.449-2.441,0.403c-2.324-0.14-4.114-1.677-5.346-3.157
				c-1.998-2.401-3.759-5.106-8.913-5.527c-5.834-0.478-10.276,2.057-11.745,3.205c-0.72,0.562-1.205,0.868-1.446,1.2
				c-0.251,0.345-0.238,0.812,0.07,1.141C645.553,29.745,645.863,29.763,646.138,29.685"/>
		</g>
	</g>
</g>
</svg>
